<svg title="Nuvemshop" xmlns="http://www.w3.org/2000/svg" viewBox="0 0 1080 120" id="svg_brand"><path d="M29.9 42.8c4.6 0 8.8 1.3 12.5 3.8v7.9c-3.9-3-7.9-4.4-12.2-4.4-9 0-15.5 6.9-15.5 15.8 0 8.8 6.5 15.8 15.5 15.8 4.6 0 8.9-2.1 12.4-4.4v7.9c-3.9 2.5-8.1 3.7-12.7 3.7-13.8 0-23.1-10.1-23.1-23.1 0-12.9 9.5-23 23.1-23zM73.2 51c-.1 0-.3 0-.5-.1-.4 0-1-.1-1.6-.1-8.3 0-13.2 6.5-13.2 16.1v21h-7.7V43.8h7.6v7.8c1.9-5.1 7.8-8.5 13.5-8.5.6 0 1 .1 1.4.1.3.1.5.1.5.1V51zm9.9-15.1c-2.9 0-5.3-2.4-5.3-5.3s2.4-5.3 5.3-5.3 5.3 2.4 5.3 5.3-2.4 5.3-5.3 5.3zm3.9 7.9v44.1h-7.8V43.8H87zm23.6 18.3l13.2-1.6v-2.3c0-5.4-3.4-8.5-9.3-8.5-5.3 0-8.7 2.6-10.3 7.8l-7.4-2.1c2.2-7.7 8.9-12.6 17.5-12.6 10.8 0 17 6.1 17 16v29.1H124v-5.8c-3.5 4.4-8.9 6.8-14.8 6.8-8.3 0-13.9-5.4-13.9-12.6 0-7.9 5-12.8 15.3-14.2zm0 19.9c7.6 0 13.2-4.9 13.2-11.7v-3.2l-12 1.5c-5.5.7-8.6 3.4-8.6 7.2 0 3.7 3.1 6.2 7.4 6.2zm73.3-57.7v63.5h-7.7v-7c-3.2 4.8-9.1 8-15.6 8-12.6 0-22.2-10-22.2-23.1 0-13 9.5-23.1 22.2-23.1 6.5 0 12.3 2.8 15.6 7.6V24.3h7.7zm-22.4 25.6c-8.7 0-15.2 6.9-15.2 15.9s6.4 15.9 15.2 15.9 15.2-6.9 15.2-15.9c-.1-9-6.5-15.9-15.2-15.9zm76.2 15.9c0 12.7-9.7 23.1-23.1 23.1-13.3 0-23.1-10.3-23.1-23.1s9.7-23.1 23.1-23.1c13.4.1 23.1 10.4 23.1 23.1zm-38.2 0c0 8.8 6.4 15.9 15.2 15.9s15.2-7.1 15.2-15.9-6.4-15.9-15.2-15.9-15.2 7.1-15.2 15.9zm77.7-23c4.6 0 8.8 1.3 12.5 3.8v7.9c-3.9-3-7.9-4.4-12.2-4.4-9 0-15.5 6.9-15.5 15.8 0 8.8 6.5 15.8 15.5 15.8 4.6 0 8.9-2.1 12.4-4.4v7.9c-3.9 2.5-8.1 3.7-12.7 3.7-13.8 0-23.1-10.1-23.1-23.1.1-12.9 9.6-23 23.1-23zm63.2 23c0 12.7-9.7 23.1-23.1 23.1-13.3 0-23.1-10.3-23.1-23.1s9.7-23.1 23.1-23.1c13.4.1 23.1 10.4 23.1 23.1zm-38.2 0c0 8.8 6.4 15.9 15.2 15.9s15.2-7.1 15.2-15.9-6.4-15.9-15.2-15.9-15.2 7.1-15.2 15.9zm53.7 22.1h-7.8V43.8h7.7v6.4c2.5-4.6 6.8-7.4 13-7.4 6.5 0 11.3 3.2 13.9 8.6 2.3-3.7 6.6-8.6 15.1-8.6 10.3 0 16.2 7.2 16.2 18.5v26.6h-7.8V62.6c0-7.9-3.4-12.7-10-12.7-6.9 0-11.3 5.7-11.3 14.8v23.1h-7.8v-25c0-8-3.4-12.9-10-12.9-6.9 0-11.3 5.7-11.3 14.8l.1 23.2zM621.8 87.8h-10.5V43.3h10.5v5.9c2.8-4.3 7.4-7 13.6-7 10.9 0 17.2 7.2 17.2 18.8v26.8h-10.5V63c0-6.9-3.4-11.1-9.9-11.1-6.3 0-10.4 4.8-10.4 12.4v23.5zm38.4-19.2V43.3h10.5V68c0 7 3.4 11.2 9.3 11.2 5.8 0 9.3-4.2 9.3-11.2V43.3h10.5v25.3c0 12.8-7.4 20.2-19.8 20.2-12.3.1-19.8-7.4-19.8-20.2zM703 43.3h11.2L726 74.2l12-30.9h10.9l-18.3 44.5h-9.3L703 43.3zm88.4 34c-3.7 7-10.6 11.5-20.1 11.5-13.5 0-23.1-9.6-23.1-23.3 0-13.3 9.8-23.3 22.6-23.3 13 0 22.1 10 22.1 23.3 0 .8 0 1.9-.1 3.2h-34.2c.5 6.4 6.2 11.3 12.8 11.3 5.8 0 8.8-2.8 11.3-6.7l8.7 4zm-8.9-16.2c-.7-5.9-5.4-10.3-11.9-10.3-6.3 0-11.2 5.2-11.9 10.3h23.8zM809 87.8h-10.5V43.3H809v5.9c2.5-4.3 6.6-7 12.7-7 6.4 0 11.1 3.1 13.5 8.3 2.4-4.3 7.4-8.3 14.8-8.3 10.3 0 16.2 7.1 16.2 18.2v27.3h-10.5V62.5c0-6.5-3-10.6-8.5-10.6-5.7 0-9.4 4.6-9.5 11.9v24h-10.5v-25c0-6.9-3-11-8.5-11-5.8 0-9.5 4.7-9.5 12.3v23.7h-.2zm70-14.7c1.5 4.1 4.9 6.8 8.9 6.8 3.3 0 6-1.5 6-4.6 0-2.5-1.5-3.7-5.1-4.8l-5.4-1.7c-7.5-2.4-11.3-6.7-11.3-12.9 0-8.3 7-13.6 15.3-13.6 7.3 0 13.3 3.9 16.2 10.1l-8.4 4.5c-1.7-3.5-4.4-5.9-7.7-5.9-3 0-5.4 1.5-5.4 4.1 0 2.1 1.6 3.7 5 4.8l5.3 1.7c8.3 2.8 11.7 7.1 11.7 13 0 9.1-7.6 14.3-16.3 14.3-8.3 0-14.7-4.4-17.2-11.3l8.4-4.5zm40.8 14.7h-10.5V26.7h10.5v22.5c2.8-4.3 7.4-7 13.6-7 10.9 0 17.2 7.2 17.2 18.8v26.8h-10.5V63c0-6.9-3.4-11.1-9.9-11.1-6.3 0-10.4 4.8-10.4 12.4v23.5zm83.8-22.3c0 13.1-10.1 23.3-23.7 23.3s-23.7-10.3-23.7-23.3c0-13.1 10.1-23.3 23.7-23.3s23.7 10.3 23.7 23.3zm-36.9 0c0 7.6 5.8 13.7 13.2 13.7s13.2-6.1 13.2-13.7-5.8-13.7-13.2-13.7-13.2 6.1-13.2 13.7zm53.4-22.2v6.4c3.3-4.6 8.9-7.4 15.1-7.4 12.3 0 21.7 10 21.7 23.3 0 13.1-9.4 23.3-21.7 23.3-6.2 0-11.8-2.5-15.1-7.2v22.7h-10.4V43.3h10.4zm12.9 8.5c-7.5 0-13.3 6.2-13.3 13.8s5.8 13.8 13.3 13.8 13.3-6.2 13.3-13.8-5.8-13.8-13.3-13.8zM533.3 10c-.1 0-.1 0 0 0-13.2 0-25.6 5.1-34.9 14.2-4.7-2-9.9-3.1-15.2-3.1-21.4 0-38.9 17.4-38.9 38.9s17.4 38.9 38.9 38.9c5.2 0 10.4-1.1 15.1-3.1 9 8.8 21.3 14.2 34.8 14.2 27.6 0 50-22.4 50-50 .1-27.5-22.3-50-49.8-50zm-.1 88.9c-21.4 0-38.9-17.4-38.9-38.9h-11.1c0 9.8 2.8 19 7.7 26.7-2.5.7-5.1 1.1-7.7 1.1-15.3 0-27.8-12.5-27.8-27.8s12.5-27.8 27.8-27.8c6.1 0 11.8 1.9 16.7 5.6C507 43.1 511 51.2 511 60h11.1c0-11.6-5-22.4-13.9-29.8 7-5.8 15.8-9.1 25-9.1 21.4 0 38.9 17.5 38.9 38.9s-17.5 38.9-38.9 38.9z"></path></svg>